<svg xmlns="http://www.w3.org/2000/svg" width="100mm" height="100mm" viewBox="0 0 100 100"><path d="M2.549 24.706c.094-1.235.932-2.43 6.223-6.318 5.291-3.886 15.036-10.464 19.921-13.164 4.885-2.7 4.914-1.525 4.981 1.153l.235 9.42c.064 2.563.087 3.508 10.239 4.157 10.151.649 30.414 1.002 40.785 13.132 10.371 12.13 10.843 36.035 9.664 48.105-1.178 12.071-4.006 12.307-6.259 2.856-2.252-9.45-3.929-28.586-12.624-38.331-8.695-9.745-24.415-10.099-32.25-9.861-7.835.237-7.798 1.065-7.667 3.981.13 2.916.356 7.915.468 11.534.112 3.62.112 5.857-5.326 1.813C25.5 49.139 14.632 38.822 8.868 33.019c-5.765-5.802-6.413-7.078-6.319-8.313Z" style="fill:#000;fill-rule:evenodd;stroke:#000;stroke-width:.270015;stroke-linecap:round;stroke-dasharray:.270015,.54003"/></svg>