<svg xmlns="http://www.w3.org/2000/svg" xml:space="preserve" width="20" height="20"><g><path d="M.995 9.739h.6v9h-.6z" transform="matrix(.79942 0 0 .88706 .2 2.116)"/><path d="M1.891 9.739h.3v9h-.3zM2.784 9.739h.3v9h-.3zM4.264 9.739h.3v9h-.3zM4.858 9.739h.3v9h-.3zM7.526 9.739h.3v9h-.3zM8.416 9.739h.3v9h-.3zM13.459 9.739h.3v9h-.3z" transform="matrix(.79942 0 0 .88706 .2 2.116)"/><path d="M10.791 9.739h.6v9h-.6z" transform="matrix(.79942 0 0 .88706 .2 2.116)"/><path d="M12.27 9.739h.9v9h-.9z" transform="matrix(.79942 0 0 .88706 .2 2.116)"/><path d="M9.019 9.739h1.2v9h-1.2zM5.731 9.739h1.2v9h-1.2z" transform="matrix(.79942 0 0 .88706 .2 2.116)"/><path d="M14.055 9.739h.6v9h-.6z" transform="matrix(.79942 0 0 .88706 .2 2.116)"/></g><rect width="5" height="4.5" x="11.581" y="-10.6" ry=".309" transform="rotate(45)"/><path d="m11.639 4.206-10.22 6.09M19.277 4.542 12.13 18.658" style="stroke:#bbb;stroke-width:.8;stroke-linecap:round;stroke-dasharray:.8,1.6;"/></svg>